<svg width="78" height="73" viewBox="0 0 78 73" fill="none" xmlns="http://www.w3.org/2000/svg">
    <path d="M22.4373 48.1947L19.1006 51.551C17.6456 53.0145 19.8911 55.1304 21.2261 53.7877L24.6682 50.3253C25.9886 48.8009 23.8207 46.802 22.4373 48.1947ZM32.5092 58.3244L29.1713 61.6807C27.7358 63.1259 29.9182 65.3125 31.3501 63.8722L34.6868 60.516C36.12 59.0745 33.9412 56.8841 32.5092 58.3244ZM37.5446 63.3893L37.2403 63.6954L41.7058 68.187C44.0349 70.5286 47.7924 66.7504 45.4632 64.4076L39.3366 58.2452L42.1932 55.3719L48.3998 61.6136C50.7047 63.7588 54.29 60.1684 52.1487 57.8415L45.4972 51.1656L48.3537 48.2923L55.0065 54.9682C57.3163 57.1171 60.8894 53.523 58.7518 51.1997L52.5125 44.9239L55.3703 42.0506L61.6084 48.3265C63.9145 50.4717 67.5034 46.8776 65.3622 44.5507L48.0167 27.1036L36.4679 26.1084L25.9474 36.6906C21.5486 41.1152 10.9116 35.4088 16.0525 30.2379L33.592 12.5945L32.314 11.309C17.2298 -3.86356 -5.92466 20.2777 8.73646 35.0235L14.2374 40.5566L14.5405 40.2517C17.8627 36.9101 23.6001 38.9761 24.0341 43.7141C26.7197 43.9555 28.827 46.0666 29.0707 48.7716C31.7587 49.0167 33.866 51.1436 34.1061 53.8438C38.8904 54.2889 40.8061 60.1087 37.5446 63.3893ZM34.3837 66.5687L34.2067 66.7467C30.8894 70.0835 25.152 68.0248 24.7167 63.2881C22.0323 63.0466 19.9178 60.927 19.6741 58.222C16.9861 57.9769 14.8861 55.8573 14.646 53.1571C9.9368 52.7205 7.88168 46.9496 11.2038 43.608L11.3796 43.4311L5.8799 37.898C-12.4526 19.4594 16.2356 -10.6114 35.1706 8.43452L36.4498 9.72116L39.4906 6.6625C60.2141 -14.1823 91.6351 18.735 71.5639 38.9236L68.5085 41.9981C72.2987 46.3837 68.6734 52.784 63.4768 53.0779C63.2816 56.5329 60.3074 59.5233 56.8737 59.7196C56.6785 63.1746 53.6934 66.1687 50.267 66.365C49.959 71.8421 43.1692 75.4056 38.8492 71.0603L34.3837 66.5687ZM27.469 53.2559L24.0753 56.6683C22.7562 58.1476 24.9083 60.2135 26.3111 58.8037L29.6478 55.4463C31.0798 54.006 28.9022 51.8144 27.469 53.2559ZM17.3983 43.125L14.0604 46.4825C12.6285 47.9228 14.8073 50.1143 16.2392 48.6728L19.5759 45.3166C21.009 43.8763 18.8302 41.6847 17.3983 43.125ZM65.6665 39.109L68.7074 36.0503C85.3436 19.3155 58.9846 -7.19785 42.3472 9.53579L19.4037 32.6136C17.6529 34.3759 22.8047 34.1039 23.0896 33.8173L34.9196 21.918L49.8584 23.2083L65.6665 39.109Z" fill="#3B876A"/>
    </svg>
    