<svg width="190" height="168" viewBox="0 0 190 168" fill="none" xmlns="http://www.w3.org/2000/svg">
<g filter="url(#filter0_d_231_621)">
<path d="M94.9567 125.169C127.425 125.169 153.746 99.6966 153.746 68.2742C153.746 36.8519 127.425 11.379 94.9567 11.379C62.4881 11.379 36.1671 36.8519 36.1671 68.2742C36.1671 99.6966 62.4881 125.169 94.9567 125.169Z" fill="#ECFAF6"/>
</g>
<path fill-rule="evenodd" clip-rule="evenodd" d="M94.9567 124.814C127.222 124.814 153.379 99.5002 153.379 68.2742C153.379 37.0483 127.222 11.7346 94.9567 11.7346C62.691 11.7346 36.5347 37.0483 36.5347 68.2742C36.5347 99.5002 62.691 124.814 94.9567 124.814ZM94.9567 125.169C127.425 125.169 153.746 99.6967 153.746 68.2742C153.746 36.8519 127.425 11.379 94.9567 11.379C62.488 11.379 36.1671 36.8519 36.1671 68.2742C36.1671 99.6967 62.488 125.169 94.9567 125.169Z" fill="#00D9A1"/>
<path d="M94.9569 121.613C125.396 121.613 150.072 97.7327 150.072 68.2742C150.072 38.8158 125.396 14.935 94.9569 14.935C64.5176 14.935 39.8416 38.8158 39.8416 68.2742C39.8416 97.7327 64.5176 121.613 94.9569 121.613Z" fill="#00D9A1"/>
<path fill-rule="evenodd" clip-rule="evenodd" d="M94.9569 120.547C124.788 120.547 148.97 97.1436 148.97 68.2742C148.97 39.4049 124.788 16.0018 94.9569 16.0018C65.1263 16.0018 40.9441 39.4049 40.9441 68.2742C40.9441 97.1436 65.1263 120.547 94.9569 120.547ZM94.9569 121.613C125.396 121.613 150.072 97.7327 150.072 68.2742C150.072 38.8158 125.396 14.935 94.9569 14.935C64.5176 14.935 39.8416 38.8158 39.8416 68.2742C39.8416 97.7327 64.5176 121.613 94.9569 121.613Z" fill="white"/>
<path fill-rule="evenodd" clip-rule="evenodd" d="M63.9217 37.9377C68.3811 37.9377 71.9959 41.436 71.9959 45.7513V72.494C71.9959 84.7936 82.2989 94.7646 95.0081 94.7646C107.718 94.7646 118.021 84.7936 118.021 72.494V45.7513C118.021 41.436 121.635 37.9377 126.094 37.9377V72.494C126.094 89.1093 112.177 102.579 95.0081 102.579C77.8396 102.579 63.9217 89.1093 63.9217 72.494V37.9377Z" fill="white"/>
<path fill-rule="evenodd" clip-rule="evenodd" d="M77.8033 50.6197C81.4792 50.6197 84.4594 53.5039 84.4594 57.0614V58.1253C87.3699 55.9375 91.0266 54.635 94.9977 54.635C104.494 54.635 112.192 62.0848 112.192 71.2753C112.192 80.4658 104.494 87.916 94.9977 87.916C85.5012 87.916 77.8029 80.4658 77.8029 71.2757H77.8025C77.8025 71.0997 77.8056 70.9244 77.8111 70.7496H77.8033V50.6197ZM84.4586 71.2753H84.459C84.459 76.9083 89.1775 81.4743 94.9977 81.4743C100.818 81.4743 105.536 76.9083 105.536 71.2757C105.536 65.6427 100.818 61.0763 94.9977 61.0763C89.1771 61.0763 84.459 65.6427 84.4586 71.2753Z" fill="white"/>
<path d="M112.52 48.4224C112.52 50.54 110.746 52.2567 108.558 52.2567C106.37 52.2567 104.596 50.54 104.596 48.4224C104.596 46.3051 106.37 44.5884 108.558 44.5884C110.746 44.5884 112.52 46.3051 112.52 48.4224Z" fill="white"/>
<defs>
<filter id="filter0_d_231_621" x="0.167114" y="-18.621" width="189.579" height="185.79" filterUnits="userSpaceOnUse" color-interpolation-filters="sRGB">
<feFlood flood-opacity="0" result="BackgroundImageFix"/>
<feColorMatrix in="SourceAlpha" type="matrix" values="0 0 0 0 0 0 0 0 0 0 0 0 0 0 0 0 0 0 127 0" result="hardAlpha"/>
<feOffset dy="6"/>
<feGaussianBlur stdDeviation="18"/>
<feColorMatrix type="matrix" values="0 0 0 0 0 0 0 0 0 0.85098 0 0 0 0 0.631373 0 0 0 0.25 0"/>
<feBlend mode="normal" in2="BackgroundImageFix" result="effect1_dropShadow_231_621"/>
<feBlend mode="normal" in="SourceGraphic" in2="effect1_dropShadow_231_621" result="shape"/>
</filter>
</defs>
</svg>
