<svg width="27" height="52" viewBox="0 0 27 52" fill="none" xmlns="http://www.w3.org/2000/svg">
<path d="M3.90174 1.24485C1.69249 0.440753 -0.729424 0.440753 -2.93867 1.24485L-13.1202 4.95064C-15.3295 5.75473 -17.1848 7.31151 -18.3603 9.34756L-23.7778 18.7309C-24.9533 20.767 -25.3739 23.1521 -24.9656 25.4674L-23.0841 36.1378C-22.6759 38.4531 -21.4649 40.5506 -19.6639 42.0618L-11.3638 49.0264C-9.56285 50.5376 -7.28699 51.3659 -4.93596 51.3659H5.89903C8.25006 51.3659 10.5259 50.5376 12.3269 49.0264L20.627 42.0618C22.428 40.5506 23.6389 38.4531 24.0472 36.1378L25.9287 25.4674C26.3369 23.1521 25.9164 20.767 24.7408 18.7309L19.3234 9.34756C18.1478 7.31152 16.2925 5.75473 14.0833 4.95064L3.90174 1.24485Z" fill="#E7BB41"/>
</svg>
