<svg width="24" height="24" viewBox="0 0 24 24" fill="none" xmlns="http://www.w3.org/2000/svg">
<path d="M12 24C18.65 24 24 18.65 24 12C24 5.34996 18.65 0 12 0C5.34996 0 0 5.34996 0 12C0 18.65 5.34996 24 12 24Z" fill="#2775CA"/>
<path d="M15.2996 13.8999C15.2996 12.1499 14.2496 11.5499 12.1496 11.2999C10.6496 11.0999 10.3496 10.6999 10.3496 9.99986C10.3496 9.29978 10.8496 8.8499 11.8496 8.8499C12.7496 8.8499 13.2496 9.1499 13.4996 9.8999C13.5496 10.0499 13.6996 10.1499 13.8496 10.1499H14.6495C14.8496 10.1499 14.9996 9.99986 14.9996 9.79994V9.7499C14.7995 8.64986 13.8995 7.79989 12.7496 7.69993V6.49993C12.7496 6.29989 12.5996 6.14989 12.3496 6.09985H11.5996C11.3996 6.09985 11.2496 6.24985 11.1995 6.49993V7.64989C9.69953 7.84994 8.74961 8.8499 8.74961 10.0999C8.74961 11.7499 9.74957 12.3999 11.8496 12.6499C13.2496 12.8999 13.6996 13.1999 13.6996 13.9999C13.6996 14.8 12.9995 15.3499 12.0496 15.3499C10.7495 15.3499 10.2995 14.7999 10.1495 14.0499C10.0996 13.8499 9.94961 13.7499 9.79961 13.7499H8.94953C8.74961 13.7499 8.59961 13.8999 8.59961 14.0999V14.1499C8.79953 15.3999 9.59957 16.2999 11.2496 16.5499V17.7499C11.2496 17.9499 11.3996 18.0999 11.6495 18.1499H12.3995C12.5996 18.1499 12.7496 17.9999 12.7996 17.7499V16.5499C14.2996 16.2999 15.2996 15.2499 15.2996 13.8999Z" fill="white"/>
<path d="M9.45049 19.15C5.55049 17.7501 3.55045 13.4001 5.00053 9.55004C5.75053 7.45004 7.40053 5.85008 9.45049 5.10008C9.65053 5.00012 9.75049 4.85012 9.75049 4.60004V3.90008C9.75049 3.70004 9.65053 3.55004 9.45049 3.50012C9.40045 3.50012 9.30049 3.50012 9.25045 3.55004C4.50049 5.05004 1.90045 10.1001 3.40045 14.8501C4.30045 17.65 6.45049 19.8001 9.25045 20.7001C9.45049 20.8 9.65053 20.7001 9.70045 20.5C9.75049 20.4501 9.75049 20.4001 9.75049 20.3001V19.6C9.75049 19.45 9.60049 19.2501 9.45049 19.15ZM14.7505 3.55004C14.5505 3.45008 14.3504 3.55004 14.3005 3.75008C14.2505 3.80012 14.2505 3.85004 14.2505 3.95012V4.65008C14.2505 4.85012 14.4005 5.05004 14.5505 5.15012C18.4505 6.55004 20.4505 10.9 19.0004 14.7501C18.2504 16.8501 16.6004 18.4501 14.5505 19.2001C14.3504 19.3 14.2505 19.45 14.2505 19.7001V20.4001C14.2505 20.6001 14.3504 20.7501 14.5505 20.8C14.6005 20.8 14.7005 20.8 14.7505 20.7501C19.5005 19.2501 22.1005 14.2 20.6005 9.45008C19.7005 6.60008 17.5004 4.45004 14.7505 3.55004V3.55004Z" fill="white"/>
</svg>
