<svg width="20" height="18" viewBox="0 0 20 18" fill="none" xmlns="http://www.w3.org/2000/svg">
<path d="M7.45049 16.15C3.55049 14.7501 1.55045 10.4001 3.00053 6.55004C3.75053 4.45004 5.40053 2.85008 7.45049 2.10008C7.65053 2.00012 7.75049 1.85012 7.75049 1.60004V0.900082C7.75049 0.700042 7.65053 0.550042 7.45049 0.500122C7.40045 0.500122 7.30049 0.500122 7.25045 0.550042C2.50049 2.05004 -0.0995536 7.10012 1.40045 11.8501C2.30045 14.65 4.45049 16.8001 7.25045 17.7001C7.45049 17.8 7.65053 17.7001 7.70045 17.5C7.75049 17.4501 7.75049 17.4001 7.75049 17.3001V16.6C7.75049 16.45 7.60049 16.2501 7.45049 16.15ZM12.7505 0.550042C12.5505 0.450082 12.3504 0.550042 12.3005 0.750082C12.2505 0.800122 12.2505 0.850042 12.2505 0.950122V1.65008C12.2505 1.85012 12.4005 2.05004 12.5505 2.15012C16.4505 3.55004 18.4505 7.90004 17.0005 11.7501C16.2504 13.8501 14.6004 15.4501 12.5505 16.2001C12.3504 16.3 12.2505 16.45 12.2505 16.7001V17.4001C12.2505 17.6001 12.3504 17.7501 12.5505 17.8C12.6005 17.8 12.7005 17.8 12.7505 17.7501C17.5005 16.2501 20.1005 11.2 18.6005 6.45008C17.7005 3.60008 15.5004 1.45004 12.7505 0.550042Z" fill="white"/>
</svg>
