<svg width="73" height="94" viewBox="0 0 73 94" fill="none" xmlns="http://www.w3.org/2000/svg">
<path d="M46.2899 0.622426C47.3945 0.220377 48.6055 0.220377 49.7101 0.622426L77.1437 10.6074C78.2483 11.0095 79.176 11.7879 79.7637 12.8059L94.3608 38.0889C94.9486 39.1069 95.1589 40.2994 94.9548 41.4571L89.8852 70.2078C89.6811 71.3654 89.0756 72.4142 88.1751 73.1698L65.8111 91.9355C64.9106 92.6911 63.7726 93.1052 62.5971 93.1052H33.4029C32.2274 93.1052 31.0894 92.6911 30.1889 91.9355L7.82487 73.1698C6.92437 72.4142 6.31889 71.3654 6.11477 70.2078L1.04524 41.4571C0.841117 40.2994 1.0514 39.1069 1.63915 38.0888L16.2363 12.8059C16.824 11.7879 17.7517 11.0095 18.8563 10.6074L46.2899 0.622426Z" fill="#EDB6A3"/>
</svg>
