<svg width="73" height="73" viewBox="0 0 73 73" fill="none" xmlns="http://www.w3.org/2000/svg">
<path d="M34.5866 0.792563C35.8117 0.285093 37.1883 0.285094 38.4134 0.792564L60.396 9.89804C61.6211 10.4055 62.5945 11.3789 63.102 12.604L72.2074 34.5866C72.7149 35.8117 72.7149 37.1883 72.2074 38.4134L63.102 60.396C62.5945 61.6211 61.6211 62.5945 60.396 63.102L38.4134 72.2074C37.1883 72.7149 35.8117 72.7149 34.5866 72.2074L12.604 63.102C11.3789 62.5945 10.4055 61.6211 9.89804 60.396L0.792563 38.4134C0.285093 37.1883 0.285094 35.8117 0.792563 34.5866L9.89804 12.604C10.4055 11.3789 11.3789 10.4055 12.604 9.89804L34.5866 0.792563Z" fill="#F2E4E3"/>
</svg>
