<svg width="24" height="24" viewBox="0 0 24 24" fill="none" xmlns="http://www.w3.org/2000/svg">
<path d="M0 12C0 5.37258 5.37258 0 12 0V0C18.6274 0 24 5.37258 24 12V12C24 18.6274 18.6274 24 12 24V24C5.37258 24 0 18.6274 0 12V12Z" fill="#50AF95"/>
<path d="M12.0589 5.07521C13.9152 5.07521 15.6973 5.07521 17.5536 5.07521C17.7021 5.07521 17.7764 5.15041 17.7764 5.22562C18.8159 7.55699 19.8554 9.81316 20.9692 12.0693C21.0435 12.1445 20.9692 12.2197 20.895 12.2949C19.6327 13.5734 18.3704 14.8519 17.0338 16.1304C15.4003 17.7098 13.6924 19.3643 12.0589 20.9436C11.9104 21.0188 11.9104 21.0188 11.8361 20.9436C10.2025 19.3643 8.56898 17.785 6.93541 16.1304C5.67311 14.8519 4.33656 13.5734 3.07425 12.2949C3 12.2197 3 12.1445 3 12.0693C3.51977 10.866 4.1138 9.73795 4.63357 8.53466C5.15334 7.40658 5.67311 6.3537 6.19288 5.22562C6.26713 5.07521 6.34139 5 6.56415 5C8.42047 5.07521 10.2025 5 12.0589 5.07521ZM12.1331 7.10576C10.7966 7.10576 9.38576 7.10576 8.04921 7.10576C7.97496 7.10576 7.97496 7.10576 7.9007 7.10576C7.82645 7.10576 7.82645 7.10576 7.82645 7.18096C7.82645 7.85781 7.82645 8.53466 7.7522 9.28672C7.7522 9.36193 7.7522 9.36193 7.82645 9.36193C8.04921 9.36193 8.27197 9.36193 8.49473 9.36193C9.23726 9.36193 9.97979 9.36193 10.7223 9.36193C10.7966 9.36193 10.7966 9.36193 10.8708 9.36193C10.9451 9.36193 10.9451 9.43713 10.9451 9.51234C10.9451 9.81316 10.9451 10.1892 10.9451 10.49C10.9451 10.5652 10.9451 10.5652 10.8708 10.6404C10.3511 10.7156 9.83128 10.7156 9.31151 10.7908C8.64323 10.866 7.97496 11.0165 7.38093 11.2421C7.08392 11.3173 6.86116 11.4677 6.6384 11.6181C6.41564 11.8437 6.41564 12.1445 6.6384 12.2949C6.78691 12.4454 6.93541 12.5206 7.08392 12.5958C7.60369 12.8214 8.12346 12.8966 8.64323 13.047C9.38577 13.1974 10.1283 13.2726 10.8708 13.3478C11.0193 13.3478 11.0193 13.3478 11.0193 13.4982C11.0193 14.8519 11.0193 16.2808 11.0193 17.6345C11.0193 17.785 11.0193 17.785 11.1678 17.785C11.8361 17.785 12.5786 17.785 13.2469 17.785C13.4697 17.785 13.4697 17.785 13.4697 17.5593C13.4697 16.4313 13.4697 15.3784 13.4697 14.2503C13.4697 13.9495 13.4697 13.6486 13.4697 13.3478C13.4697 13.1974 13.5439 13.1974 13.6182 13.1974C14.3607 13.1974 15.029 13.1222 15.7715 12.9718C16.3656 12.8966 16.8853 12.7462 17.4051 12.5206C17.5536 12.4454 17.7021 12.2949 17.8506 12.2197C17.9991 12.0693 17.9991 11.9189 17.8506 11.7685C17.7021 11.6933 17.6279 11.5429 17.4793 11.4677C16.5883 10.9412 15.5488 10.7156 14.5092 10.6404C14.2122 10.6404 13.9152 10.6404 13.6182 10.5652C13.5439 10.5652 13.5439 10.5652 13.5439 10.4148C13.5439 10.114 13.5439 9.73796 13.5439 9.43713C13.5439 9.36193 13.5439 9.28672 13.6924 9.28672C13.9152 9.28672 14.138 9.28672 14.3607 9.28672C15.1033 9.28672 15.7715 9.28672 16.5141 9.28672C16.6626 9.28672 16.6626 9.21152 16.6626 9.13631C16.6626 9.0611 16.6626 9.0611 16.6626 8.9859C16.6626 8.38425 16.6626 7.78261 16.6626 7.10576C16.6626 6.95535 16.6626 6.95535 16.5141 6.95535C14.8805 7.10576 13.4697 7.10576 12.1331 7.10576Z" fill="white"/>
<path d="M11.7615 12.8215C11.2417 12.8215 10.7962 12.8215 10.2764 12.7463C9.4596 12.6711 8.56857 12.5959 7.75178 12.2951C7.60328 12.2199 7.45477 12.1447 7.23201 12.0695C7.00925 11.9191 7.00925 11.7687 7.23201 11.6935C7.52902 11.543 7.82604 11.4678 8.12305 11.3926C8.71707 11.2422 9.3111 11.167 9.97938 11.0918C10.2021 11.0918 10.4991 11.0166 10.7219 11.0166C10.7962 11.0166 10.8704 11.0166 10.8704 11.167C10.8704 11.6182 10.8704 11.9943 10.8704 12.4455C10.8704 12.5959 10.9447 12.5959 11.0189 12.5959C11.6129 12.5959 12.207 12.5959 12.7267 12.5959C12.8752 12.5959 13.0238 12.5959 13.1723 12.5959C13.3208 12.5959 13.3208 12.5959 13.3208 12.4455C13.3208 12.0695 13.3208 11.6935 13.3208 11.3174C13.3208 11.0918 13.3208 11.0918 13.5435 11.0918C14.5088 11.167 15.4741 11.2422 16.4394 11.543C16.5879 11.6182 16.8107 11.6935 16.9592 11.7687C17.1077 11.8439 17.1077 11.9943 16.9592 12.0695C16.6622 12.2951 16.3651 12.3703 15.9939 12.4455C15.2513 12.5959 14.5088 12.7463 13.7663 12.7463C13.1723 12.7463 12.4297 12.8215 11.7615 12.8215Z" fill="white"/>
</svg>
